<svg width="20" height="24" viewBox="0 0 20 24" fill="none" xmlns="http://www.w3.org/2000/svg">
<path d="M19.341 5.125C19.0608 4.77324 18.7046 4.48935 18.2993 4.29454C17.8939 4.09973 17.4497 3.99905 17 4H12.673L12.8 2.89C12.827 2.646 12.9428 2.42045 13.1254 2.25632C13.3079 2.0922 13.5445 2.00097 13.79 2H18C18.2652 2 18.5196 1.89464 18.7071 1.70711C18.8946 1.51957 19 1.26522 19 1C19 0.734784 18.8946 0.48043 18.7071 0.292893C18.5196 0.105357 18.2652 0 18 0L13.79 0C13.0518 0.000168296 12.3395 0.272519 11.7896 0.764943C11.2396 1.25737 10.8904 1.93529 10.809 2.669L10.661 4H3C2.56038 4.00408 2.12696 4.10409 1.73001 4.29305C1.33306 4.482 0.982147 4.75535 0.70179 5.09399C0.421433 5.43262 0.218391 5.82839 0.106848 6.25363C-0.00469565 6.67888 -0.0220504 7.12335 0.0559958 7.556L1.568 19.622C1.7212 20.8302 2.3094 21.9411 3.22254 22.747C4.13567 23.5528 5.31115 23.9982 6.529 24H13.47C14.6881 23.998 15.8637 23.5524 16.7769 22.7464C17.6902 21.9404 18.2786 20.8294 18.432 19.621L19.932 7.653C20.0304 7.21433 20.0284 6.75908 19.926 6.32131C19.8237 5.88354 19.6237 5.47457 19.341 5.125ZM17 6C17.15 5.99994 17.298 6.03362 17.4332 6.09853C17.5684 6.16344 17.6873 6.25793 17.781 6.375C17.8814 6.50662 17.9499 6.65979 17.9809 6.8224C18.012 6.98502 18.0048 7.15263 17.96 7.312L17.622 10H12.006L12.451 6H17ZM2.221 6.374C2.31461 6.25738 2.4332 6.16324 2.56801 6.09851C2.70283 6.03379 2.85045 6.00012 3 6H10.437L9.992 10H2.374L2.024 7.216C1.99122 7.06988 1.99191 6.91824 2.02603 6.77243C2.06014 6.62662 2.1268 6.49041 2.221 6.374ZM16.447 19.374C16.3548 20.0988 16.0018 20.7652 15.4538 21.2486C14.9059 21.7319 14.2006 21.999 13.47 22H6.529C5.79822 21.9999 5.09263 21.733 4.54468 21.2495C3.99673 20.766 3.6441 20.0991 3.553 19.374L2.626 12H17.371L16.447 19.374ZM11.438 15.11L10.994 19.11C10.9796 19.2405 10.9395 19.3669 10.8762 19.482C10.8129 19.5971 10.7276 19.6986 10.6251 19.7806C10.5226 19.8627 10.4049 19.9238 10.2788 19.9604C10.1526 19.997 10.0205 20.0084 9.89 19.994C9.75946 19.9796 9.63305 19.9395 9.51798 19.8762C9.40291 19.8129 9.30144 19.7276 9.21935 19.6251C9.13726 19.5226 9.07617 19.4049 9.03957 19.2788C9.00296 19.1526 8.99155 19.0205 9.006 18.89L9.45 14.89C9.48263 14.6277 9.61639 14.3885 9.8228 14.2234C10.0292 14.0583 10.2919 13.9803 10.555 14.006C10.8184 14.0354 11.0594 14.1682 11.225 14.3752C11.3906 14.5822 11.4672 14.8465 11.438 15.11Z" fill="#B7C1C2"/>
</svg>
